<svg width="64" height="64" viewBox="0 0 64 64" xmlns="http://www.w3.org/2000/svg" aria-labelledby="ateliuxLogoTitle">
  <title id="ateliuxLogoTitle">Ateliux</title>
  <defs>
    <linearGradient id="ateliuxGradient" x1="12" y1="6" x2="54" y2="58" gradientUnits="userSpaceOnUse">
      <stop offset="0" stop-color="#0ea5e9"/>
      <stop offset="1" stop-color="#2563eb"/>
    </linearGradient>
  </defs>
  <rect x="6" y="6" width="52" height="52" rx="14" fill="url(#ateliuxGradient)"/>
  <path d="M32 15c-1.5 0-2.8.9-3.3 2.3L17.2 47.2c-.6 1.5.5 3.1 2.1 3.1h6.3c1.1 0 2.1-.7 2.5-1.8l1.6-4.8h8.6l1.6 4.8c.4 1.1 1.4 1.8 2.5 1.8h6.3c1.6 0 2.7-1.6 2.1-3.1L35.3 17.3C34.8 15.9 33.5 15 32 15Zm0 13.4 2.7 7.8h-5.4l2.7-7.8Z" fill="#eff6ff"/>
</svg>
